<svg width="29" height="29" viewBox="0 0 29 29" fill="none" xmlns="http://www.w3.org/2000/svg">
<path d="M24.4688 17.0979V22.2333C24.4688 23.5553 23.5179 24.6935 22.2068 24.8675C19.685 25.2022 17.1125 25.375 14.5001 25.375C11.8877 25.375 9.31511 25.2022 6.79332 24.8675C5.48228 24.6935 4.53132 23.5553 4.53132 22.2333V17.0979M24.4688 17.0979C24.7557 16.8486 24.9853 16.5401 25.1417 16.1936C25.2982 15.8472 25.3778 15.471 25.3751 15.0909V10.5198C25.3751 9.21354 24.4471 8.08496 23.1554 7.89163C21.7867 7.68671 20.4111 7.53074 19.0313 7.424M24.4688 17.0979C24.2344 17.2973 23.9613 17.4544 23.6556 17.5571C20.7027 18.5369 17.6113 19.0346 14.5001 19.0313C11.3004 19.0313 8.22277 18.5129 5.34452 17.5571C5.04638 17.4579 4.77024 17.302 4.53132 17.0979M4.53132 17.0979C4.24439 16.8486 4.01483 16.5401 3.85839 16.1936C3.70196 15.8472 3.62236 15.471 3.62507 15.0909V10.5198C3.62507 9.21354 4.55307 8.08496 5.84477 7.89163C7.21345 7.68671 8.58901 7.53074 9.96882 7.424M19.0313 7.424V6.34375C19.0313 5.62269 18.7449 4.93117 18.235 4.4213C17.7251 3.91144 17.0336 3.625 16.3126 3.625H12.6876C11.9665 3.625 11.275 3.91144 10.7651 4.4213C10.2553 4.93117 9.96882 5.62269 9.96882 6.34375V7.424M19.0313 7.424C16.015 7.19089 12.9852 7.19089 9.96882 7.424M14.5001 15.4063H14.5097V15.4159H14.5001V15.4063Z" stroke="#0F1C3D" stroke-width="1.8125" stroke-linecap="round" stroke-linejoin="round"/>
</svg>
