<svg width="22" height="23" viewBox="0 0 22 23" fill="none" xmlns="http://www.w3.org/2000/svg">
<path d="M8.02194 11.3669H11.3579M8.02194 14.0357H11.3579M8.02194 16.7045H11.3579M14.0267 17.3717H16.0283C16.5592 17.3717 17.0683 17.1608 17.4436 16.7854C17.819 16.4101 18.0299 15.901 18.0299 15.3701V6.12542C18.0299 5.11573 17.2782 4.25905 16.272 4.17543C15.9393 4.14783 15.6063 4.12411 15.273 4.10426M15.273 4.10426C15.3321 4.2956 15.3612 4.49471 15.3611 4.69495C15.3611 4.8719 15.2908 5.04161 15.1657 5.16673C15.0406 5.29185 14.8709 5.36215 14.6939 5.36215H10.6907C10.3224 5.36215 10.0235 5.06324 10.0235 4.69495C10.0235 4.48945 10.0547 4.29107 10.1125 4.10426M15.273 4.10426C15.0213 3.28761 14.2598 2.69336 13.3595 2.69336H12.0251C11.5974 2.69346 11.181 2.83049 10.8369 3.08437C10.4927 3.33826 10.2388 3.69567 10.1125 4.10426M10.1125 4.10426C9.778 4.12472 9.44529 4.14874 9.11258 4.17543C8.10645 4.25905 7.35474 5.11573 7.35474 6.12542V8.03093M7.35474 8.03093H4.35236C3.79992 8.03093 3.35156 8.47929 3.35156 9.03173V19.0397C3.35156 19.5921 3.79992 20.0405 4.35236 20.0405H13.0259C13.5784 20.0405 14.0267 19.5921 14.0267 19.0397V9.03173C14.0267 8.47929 13.5784 8.03093 13.0259 8.03093H7.35474ZM6.02035 11.3669H6.02747V11.374H6.02035V11.3669ZM6.02035 14.0357H6.02747V14.0428H6.02035V14.0357ZM6.02035 16.7045H6.02747V16.7116H6.02035V16.7045Z" stroke="white" stroke-width="1.33439" stroke-linecap="round" stroke-linejoin="round"/>
</svg>
