<svg width="29" height="29" viewBox="0 0 29 29" fill="none" xmlns="http://www.w3.org/2000/svg">
<path d="M23.5625 17.2188V14.0469C23.5625 12.9653 23.1328 11.928 22.368 11.1632C21.6032 10.3984 20.566 9.96875 19.4844 9.96875H17.6719C17.3113 9.96875 16.9656 9.82553 16.7107 9.5706C16.4557 9.31567 16.3125 8.9699 16.3125 8.60938V6.79688C16.3125 5.71529 15.8828 4.678 15.118 3.91321C14.3532 3.14841 13.316 2.71875 12.2344 2.71875H9.96875M16.2895 19.0083L18.125 20.8438M16.2895 19.0083C16.5841 18.7138 16.8179 18.3643 16.9773 17.9794C17.1367 17.5946 17.2188 17.1822 17.2188 16.7656C17.2188 15.9244 16.8846 15.1176 16.2897 14.5228C15.6949 13.9279 14.8881 13.5938 14.0469 13.5938C13.2056 13.5938 12.3989 13.9279 11.804 14.5228C11.2092 15.1176 10.875 15.9244 10.875 16.7656C10.875 17.1822 10.957 17.5946 11.1164 17.9794C11.2758 18.3643 11.5095 18.7139 11.804 19.0085C12.0986 19.303 12.4482 19.5367 12.8331 19.6961C13.2179 19.8555 13.6303 19.9375 14.0469 19.9375C14.4634 19.9375 14.8759 19.8555 15.2607 19.6961C15.6455 19.5367 15.995 19.3028 16.2895 19.0083ZM12.6875 2.71875H6.79688C6.0465 2.71875 5.4375 3.32775 5.4375 4.07813V24.0156C5.4375 24.766 6.0465 25.375 6.79688 25.375H22.2031C22.9535 25.375 23.5625 24.766 23.5625 24.0156V13.5938C23.5625 10.7095 22.4167 7.94342 20.3773 5.90396C18.3378 3.86451 15.5717 2.71875 12.6875 2.71875Z" stroke="#0F1C3D" stroke-width="1.8125" stroke-linecap="round" stroke-linejoin="round"/>
</svg>
