<svg width="22" height="22" viewBox="0 0 22 22" fill="none" xmlns="http://www.w3.org/2000/svg">
<path d="M17.3625 12.7025V10.3673C17.3625 9.57102 17.0462 8.80735 16.4831 8.2443C15.9201 7.68124 15.1564 7.36492 14.3601 7.36492H13.0257C12.7603 7.36492 12.5057 7.25948 12.318 7.07179C12.1304 6.88411 12.0249 6.62955 12.0249 6.36412V5.02973C12.0249 4.23345 11.7086 3.46978 11.1455 2.90672C10.5825 2.34367 9.81881 2.02734 9.02253 2.02734H7.35454M12.008 14.02L13.3593 15.3713M12.008 14.02C12.2249 13.8031 12.397 13.5458 12.5144 13.2625C12.6317 12.9792 12.6921 12.6756 12.6921 12.3689C12.6921 11.7496 12.4461 11.1556 12.0082 10.7177C11.5702 10.2797 10.9763 10.0337 10.3569 10.0337C9.73759 10.0337 9.14363 10.2797 8.7057 10.7177C8.26776 11.1556 8.02174 11.7496 8.02174 12.3689C8.02174 12.6756 8.08214 12.9792 8.19949 13.2625C8.31684 13.5458 8.48885 13.8033 8.7057 14.0201C8.92254 14.237 9.17997 14.409 9.46329 14.5263C9.7466 14.6437 10.0503 14.7041 10.3569 14.7041C10.6636 14.7041 10.9672 14.6437 11.2506 14.5263C11.5339 14.409 11.7912 14.2368 12.008 14.02ZM9.35613 2.02734H5.01935C4.46691 2.02734 4.01855 2.4757 4.01855 3.02814V17.7065C4.01855 18.2589 4.46691 18.7073 5.01935 18.7073H16.3617C16.9141 18.7073 17.3625 18.2589 17.3625 17.7065V10.0337C17.3625 7.91029 16.519 5.87384 15.0175 4.37235C13.516 2.87087 11.4795 2.02734 9.35613 2.02734Z" stroke="white" stroke-width="1.33439" stroke-linecap="round" stroke-linejoin="round"/>
</svg>
