<svg width="21" height="21" viewBox="0 0 21 21" fill="none" xmlns="http://www.w3.org/2000/svg">
<path d="M12.72 7.75556L12.4218 15.5124M8.29515 15.5124L7.99695 7.75556M16.5881 4.98897C16.8828 5.03378 17.1758 5.08119 17.4689 5.13204M16.5881 4.98897L15.6676 16.9543C15.63 17.4414 15.4099 17.8965 15.0514 18.2283C14.6928 18.5602 14.2221 18.7445 13.7335 18.7444H6.98339C6.49479 18.7445 6.02415 18.5602 5.66557 18.2283C5.307 17.8965 5.08692 17.4414 5.04935 16.9543L4.12888 4.98897M16.5881 4.98897C15.5933 4.83858 14.5935 4.72445 13.5905 4.6468M4.12888 4.98897C3.83412 5.03292 3.54108 5.08032 3.24805 5.13117M4.12888 4.98897C5.12359 4.83859 6.12344 4.72446 7.12646 4.6468M13.5905 4.6468V3.85733C13.5905 2.84033 12.8062 1.99225 11.7892 1.96036C10.8356 1.92988 9.88132 1.92988 8.92776 1.96036C7.91076 1.99225 7.12646 2.84119 7.12646 3.85733V4.6468M13.5905 4.6468C11.439 4.48053 9.27792 4.48053 7.12646 4.6468" stroke="#327AED" stroke-width="1.2928" stroke-linecap="round" stroke-linejoin="round"/>
</svg>
