<svg width="22" height="23" viewBox="0 0 22 23" fill="none" xmlns="http://www.w3.org/2000/svg">
<path d="M18.0306 13.2803V17.0611C18.0306 18.0343 17.3305 18.8723 16.3653 19.0004C14.5087 19.2468 12.6148 19.3741 10.6915 19.3741C8.76816 19.3741 6.87421 19.2468 5.01763 19.0004C4.05242 18.8723 3.3523 18.0343 3.3523 17.0611V13.2803M18.0306 13.2803C18.2419 13.0968 18.4109 12.8696 18.526 12.6146C18.6412 12.3595 18.6998 12.0826 18.6978 11.8027V8.43736C18.6978 7.47571 18.0146 6.64483 17.0636 6.50249C16.056 6.35163 15.0433 6.2368 14.0275 6.15822M18.0306 13.2803C17.8581 13.4271 17.657 13.5428 17.4319 13.6184C15.258 14.3397 12.982 14.7062 10.6915 14.7037C8.33582 14.7037 6.07002 14.322 3.951 13.6184C3.7315 13.5454 3.5282 13.4306 3.3523 13.2803M3.3523 13.2803C3.14106 13.0968 2.97206 12.8696 2.85689 12.6146C2.74172 12.3595 2.68312 12.0826 2.68511 11.8027V8.43736C2.68511 7.47571 3.36832 6.64483 4.31929 6.50249C5.32694 6.35163 6.33965 6.2368 7.35548 6.15822M14.0275 6.15822V5.36292C14.0275 4.83206 13.8166 4.32295 13.4412 3.94758C13.0658 3.57221 12.5567 3.36133 12.0259 3.36133H9.35708C8.82622 3.36133 8.31711 3.57221 7.94174 3.94758C7.56637 4.32295 7.35548 4.83206 7.35548 5.36292V6.15822M14.0275 6.15822C11.8068 5.98659 9.57616 5.98659 7.35548 6.15822M10.6915 12.0349H10.6986V12.042H10.6915V12.0349Z" stroke="white" stroke-width="1.33439" stroke-linecap="round" stroke-linejoin="round"/>
</svg>
