<svg width="29" height="29" viewBox="0 0 29 29" fill="none" xmlns="http://www.w3.org/2000/svg">
<path d="M12.6875 7.25C10.8951 7.25 9.14297 7.78151 7.65265 8.77731C6.16233 9.77311 5.00077 11.1885 4.31485 12.8444C3.62893 14.5004 3.44946 16.3226 3.79914 18.0805C4.14882 19.8385 5.01194 21.4532 6.27935 22.7207C7.54676 23.9881 9.16154 24.8512 10.9195 25.2009C12.6775 25.5505 14.4996 25.3711 16.1556 24.6852C17.8115 23.9992 19.2269 22.8377 20.2227 21.3474C21.2185 19.857 21.75 18.1049 21.75 16.3125H12.6875V7.25Z" stroke="#327AED" stroke-width="1.8125" stroke-linecap="round" stroke-linejoin="round"/>
<path d="M16.3125 12.6875H25.375C25.375 10.284 24.4202 7.97889 22.7207 6.27934C21.0211 4.5798 18.716 3.625 16.3125 3.625V12.6875Z" stroke="#327AED" stroke-width="1.8125" stroke-linecap="round" stroke-linejoin="round"/>
</svg>
