<svg width="29" height="29" viewBox="0 0 29 29" fill="none" xmlns="http://www.w3.org/2000/svg">
<path d="M10.875 14.5H15.4063M10.875 18.125H15.4063M10.875 21.75H15.4063M19.0313 22.6563H21.75C22.4711 22.6563 23.1626 22.3698 23.6724 21.8599C24.1823 21.3501 24.4688 20.6586 24.4688 19.9375V7.3805C24.4688 6.00904 23.4477 4.84542 22.0811 4.73183C21.6292 4.69435 21.1768 4.66213 20.7241 4.63517M20.7241 4.63517C20.8043 4.89506 20.8438 5.16552 20.8438 5.4375C20.8438 5.67785 20.7483 5.90836 20.5783 6.07832C20.4084 6.24827 20.1779 6.34375 19.9375 6.34375H14.5C13.9998 6.34375 13.5938 5.93775 13.5938 5.4375C13.5938 5.15838 13.636 4.88892 13.7146 4.63517M20.7241 4.63517C20.3822 3.52592 19.3478 2.71875 18.125 2.71875H16.3125C15.7316 2.71889 15.166 2.90501 14.6985 3.24986C14.231 3.59471 13.8862 4.08018 13.7146 4.63517M13.7146 4.63517C13.2603 4.66296 12.8083 4.69558 12.3564 4.73183C10.9898 4.84542 9.96875 6.00904 9.96875 7.3805V9.96875M9.96875 9.96875H5.89063C5.14025 9.96875 4.53125 10.5778 4.53125 11.3281V24.9219C4.53125 25.6723 5.14025 26.2813 5.89063 26.2813H17.6719C18.4223 26.2813 19.0313 25.6723 19.0313 24.9219V11.3281C19.0313 10.5778 18.4223 9.96875 17.6719 9.96875H9.96875ZM8.15625 14.5H8.16592V14.5097H8.15625V14.5ZM8.15625 18.125H8.16592V18.1347H8.15625V18.125ZM8.15625 21.75H8.16592V21.7597H8.15625V21.75Z" stroke="#0F1C3D" stroke-width="1.8125" stroke-linecap="round" stroke-linejoin="round"/>
</svg>
