<svg width="22" height="23" viewBox="0 0 22 23" fill="none" xmlns="http://www.w3.org/2000/svg">
<path d="M10.1748 14.1869L15.3612 19.3733C15.806 19.8039 16.4022 20.0424 17.0212 20.0373C17.6403 20.0323 18.2326 19.7842 18.6703 19.3464C19.1081 18.9087 19.3562 18.3164 19.3612 17.6974C19.3662 17.0783 19.1278 16.4821 18.6972 16.0373L13.469 10.8091M10.1748 14.1869L12.3953 11.4915C12.6773 11.1499 13.0536 10.9346 13.4699 10.81C13.9592 10.6641 14.5045 10.6428 15.0205 10.6855C15.716 10.7452 16.415 10.622 17.0482 10.3281C17.6814 10.0343 18.2268 9.57993 18.6301 9.0102C19.0335 8.44048 19.2809 7.77517 19.3477 7.08031C19.4146 6.38545 19.2986 5.68518 19.0112 5.04901L16.0969 7.96421C15.6093 7.85147 15.1632 7.60407 14.8093 7.2502C14.4554 6.89633 14.208 6.45021 14.0953 5.96262L17.0096 3.04831C16.3734 2.76094 15.6732 2.64492 14.9783 2.71176C14.2834 2.7786 13.6181 3.02599 13.0484 3.42937C12.4787 3.83274 12.0243 4.37809 11.7305 5.01129C11.4366 5.64448 11.3134 6.34352 11.3731 7.03903C11.4541 7.99624 11.31 9.05308 10.5689 9.66334L10.4782 9.73896M10.1748 14.1869L6.03378 19.2158C5.83308 19.4605 5.58338 19.6604 5.30075 19.8027C5.01812 19.945 4.70882 20.0266 4.39277 20.0421C4.07671 20.0577 3.7609 20.0069 3.46566 19.893C3.17043 19.7791 2.9023 19.6047 2.67855 19.381C2.45479 19.1572 2.28037 18.8891 2.1665 18.5938C2.05263 18.2986 2.00183 17.9828 2.01739 17.6667C2.03294 17.3507 2.1145 17.0414 2.25682 16.7588C2.39913 16.4761 2.59904 16.2264 2.84369 16.0257L8.92585 11.0173L5.27228 7.36374H4.01884L2.01725 4.02775L3.35165 2.69336L6.68763 4.69495V5.94839L10.4773 9.73807L8.92496 11.0164M16.362 17.0381L14.0268 14.7029M4.34532 17.7053H4.35244V17.7124H4.34532V17.7053Z" stroke="white" stroke-width="1.33439" stroke-linecap="round" stroke-linejoin="round"/>
</svg>
