<svg width="29" height="29" viewBox="0 0 29 29" fill="none" xmlns="http://www.w3.org/2000/svg">
<path d="M13.7998 18.3304L20.8444 25.375C21.4485 25.9599 22.2584 26.2838 23.0992 26.277C23.9401 26.2702 24.7445 25.9331 25.3391 25.3385C25.9337 24.7439 26.2708 23.9394 26.2776 23.0986C26.2844 22.2578 25.9605 21.4479 25.3756 20.8438L18.2742 13.7424M13.7998 18.3304L16.8158 14.6692C17.1988 14.2052 17.7099 13.9127 18.2754 13.7436C18.94 13.5454 19.6807 13.5164 20.3816 13.5744C21.3263 13.6555 22.2758 13.4882 23.1358 13.089C23.9959 12.6899 24.7367 12.0727 25.2846 11.2989C25.8325 10.525 26.1685 9.62135 26.2593 8.67752C26.3501 7.7337 26.1925 6.78253 25.8021 5.91842L21.8436 9.87813C21.1814 9.72498 20.5754 9.38895 20.0947 8.90829C19.6141 8.42763 19.278 7.82166 19.1249 7.15938L23.0834 3.20087C22.2193 2.81054 21.2681 2.65295 20.3243 2.74374C19.3805 2.83454 18.4768 3.17056 17.7029 3.71846C16.9291 4.26637 16.3119 5.00711 15.9128 5.86718C15.5136 6.72725 15.3463 7.67675 15.4274 8.62146C15.5374 9.92163 15.3416 11.3571 14.3351 12.186L14.2118 12.2888M13.7998 18.3304L8.17498 25.1611C7.90237 25.4934 7.5632 25.765 7.17931 25.9583C6.79542 26.1516 6.3753 26.2624 5.94601 26.2835C5.51671 26.3046 5.08775 26.2356 4.68673 26.081C4.28571 25.9263 3.92151 25.6894 3.61759 25.3854C3.31367 25.0815 3.07674 24.7173 2.92207 24.3163C2.7674 23.9153 2.69841 23.4863 2.71954 23.057C2.74067 22.6277 2.85145 22.2076 3.04476 21.8237C3.23806 21.4398 3.5096 21.1007 3.8419 20.828L12.1033 14.0251L7.14065 9.0625H5.43811L2.71936 4.53125L4.53186 2.71875L9.06311 5.4375V7.14004L14.2106 12.2875L12.1021 14.0239M22.2037 22.2031L19.0319 19.0313M5.88157 23.1094H5.89123V23.119H5.88157V23.1094Z" stroke="#0F1C3D" stroke-width="1.8125" stroke-linecap="round" stroke-linejoin="round"/>
</svg>
