<svg width="21" height="21" viewBox="0 0 21 21" fill="none" xmlns="http://www.w3.org/2000/svg">
<path d="M14.5327 3.86571L15.9867 2.41088C16.2898 2.10778 16.7008 1.9375 17.1295 1.9375C17.5581 1.9375 17.9692 2.10778 18.2723 2.41088C18.5754 2.71398 18.7457 3.12507 18.7457 3.55372C18.7457 3.98237 18.5754 4.39346 18.2723 4.69656L9.12014 13.8487C8.66449 14.3041 8.10259 14.6388 7.48518 14.8227L5.17106 15.5122L5.86055 13.198C6.04437 12.5806 6.37908 12.0187 6.83446 11.5631L14.5327 3.86571ZM14.5327 3.86571L16.8063 6.13933M15.5135 12.0647V16.1586C15.5135 16.6729 15.3092 17.1661 14.9455 17.5298C14.5818 17.8935 14.0886 18.0978 13.5743 18.0978H4.52465C4.01035 18.0978 3.5171 17.8935 3.15343 17.5298C2.78976 17.1661 2.58545 16.6729 2.58545 16.1586V7.10893C2.58545 6.59462 2.78976 6.10137 3.15343 5.7377C3.5171 5.37403 4.01035 5.16972 4.52465 5.16972H8.61853" stroke="#327AED" stroke-width="1.2928" stroke-linecap="round" stroke-linejoin="round"/>
</svg>
