<svg width="22" height="21" viewBox="0 0 22 21" fill="none" xmlns="http://www.w3.org/2000/svg">
<path d="M4.41524 7.08748C3.60892 8.03913 3.00851 9.14752 2.65186 10.3428C3.76539 14.0815 7.22838 16.8068 11.3274 16.8068C12.1833 16.8068 13.0107 16.6878 13.795 16.4663M6.35272 5.36805C7.8288 4.39402 9.55895 3.87605 11.3274 3.87874C15.4265 3.87874 18.8886 6.60397 20.0021 10.341C19.3919 12.3831 18.0819 14.145 16.3021 15.3175M6.35272 5.36805L3.57061 2.58594M6.35272 5.36805L9.49854 8.51387M16.3021 15.3175L19.0843 18.0996M16.3021 15.3175L13.1563 12.1716C13.3964 11.9315 13.5869 11.6465 13.7169 11.3327C13.8468 11.019 13.9137 10.6828 13.9137 10.3432C13.9137 10.0036 13.8468 9.66736 13.7169 9.35364C13.5869 9.03991 13.3964 8.75485 13.1563 8.51473C12.9162 8.27462 12.6311 8.08415 12.3174 7.9542C12.0037 7.82425 11.6674 7.75736 11.3279 7.75736C10.9883 7.75736 10.652 7.82425 10.3383 7.9542C10.0246 8.08415 9.73952 8.27462 9.49941 8.51473M13.1555 12.1708L9.50027 8.5156" stroke="#327AED" stroke-width="1.2928" stroke-linecap="round" stroke-linejoin="round"/>
</svg>
