<svg width="20" height="20" viewBox="0 0 32 32" fill="none" xmlns="http://www.w3.org/2000/svg">
  <rect width="32" height="32" rx="16" fill="#25D366"/>
  <path d="M16 6C10.477 6 6 10.477 6 16c0 2.137.672 4.12 1.82 5.77L6 26l4.37-1.78A9.94 9.94 0 0 0 16 26c5.523 0 10-4.477 10-10S21.523 6 16 6zm0 18c-1.64 0-3.18-.4-4.52-1.1l-.32-.18-2.6 1.06.5-2.7-.18-.28A7.96 7.96 0 0 1 8 16c0-4.418 3.582-8 8-8s8 3.582 8 8-3.582 8-8 8zm4.38-5.47c-.24-.12-1.42-.7-1.64-.78-.22-.08-.38-.12-.54.12-.16.24-.62.78-.76.94-.14.16-.28.18-.52.06-.24-.12-1.02-.38-1.94-1.2-.72-.64-1.2-1.42-1.34-1.66-.14-.24-.02-.36.1-.48.1-.1.24-.28.36-.42.12-.14.16-.24.24-.4.08-.16.04-.3-.02-.42-.06-.12-.54-1.3-.74-1.78-.2-.48-.4-.42-.54-.42-.14 0-.3-.02-.46-.02-.16 0-.42.06-.64.3-.22.24-.84.82-.84 2 0 1.18.86 2.32 1 2.48.14.16 1.7 2.7 4.12 3.68.58.24 1.04.38 1.4.48.58.18 1.1.16 1.52.1.46-.06 1.42-.58 1.62-1.14.2-.56.2-1.04.14-1.14-.06-.1-.22-.16-.46-.28z" fill="#fff"/>
</svg>
